<svg width="102" height="88" viewBox="0 0 102 88" fill="none" xmlns="http://www.w3.org/2000/svg">
<path d="M88.4735 70.033C88.2279 70.4445 87.699 71.3569 86.9927 72.5437C83.9129 77.6833 77.4198 88.0989 75.135 86.9417C66.5139 82.3909 57.0486 79.7817 47.7311 76.8587C46.1518 76.3684 44.5831 75.8683 43.0235 75.3484C31.5871 71.5229 22.7114 66.3052 13.8251 58.2919C5.8118 51.0638 -0.867727 43.756 0.888185 31.8687C3.05556 17.166 20.1712 4.76866 34.6381 9.61425C41.6413 11.9582 47.4083 16.9508 52.8124 21.9919C52.0765 13.5663 57.5791 5.16123 65.337 1.80709C70.2902 -0.340574 75.93 -0.507297 81.1378 0.953772C84.0903 1.77752 86.9048 3.13102 89.3769 4.94607C96.2035 9.9477 100.391 18.1187 101.284 26.5336C102.862 41.4128 95.9669 57.547 88.4735 70.033Z" fill="url(#paint0_linear_1_1887)"/>
<path d="M86.9936 72.5439C83.9137 77.6835 77.4206 88.0991 75.1358 86.9419C66.5148 82.3911 57.0494 79.7819 47.7319 76.8589C47.6441 75.9761 47.5554 75.1031 47.4576 74.221C47.2613 72.4068 47.0453 70.5433 46.1929 68.9245C45.379 67.3846 44.0542 66.1978 42.7599 65.0308C39.4838 62.098 36.5321 59.8714 32.9126 57.5373C30.3231 55.8701 28.1558 53.6535 26.0179 51.4467C22.9184 48.2593 19.8098 45.7675 19.5249 41.0599C19.4657 40.0793 22.2417 30.5458 23.5754 31.7522C24.8016 32.87 26.3604 33.5468 28.0482 33.3899C29.6957 33.233 31.2553 32.2918 32.148 30.8989C35.8069 33.2232 40.0636 34.6062 44.3885 34.9002C48.8218 35.2041 52.3624 32.291 56.5797 31.2225C67.2704 28.5254 76.3431 38.2741 80.9431 46.9058C82.9931 50.77 84.3663 55.6156 84.7974 59.9405C85.2475 64.4132 85.0512 68.5713 86.9936 72.5439Z" fill="white"/>
<path d="M75.3488 42.8421C81.1356 46.4361 75.077 64.6341 74.2146 69.984C73.942 71.675 73.6603 73.3964 72.8956 74.929C72.131 76.4615 70.7948 77.8051 69.1153 78.1443C66.0371 78.766 63.4172 76.004 61.4937 73.5221C58.4607 69.6095 55.2749 65.2435 55.4737 60.2969C55.6922 54.8657 59.8938 50.54 63.8253 46.7859C65.4129 45.2698 67.039 43.7275 69.0315 42.8068C71.0239 41.8853 73.4845 41.6841 75.3488 42.8421Z" fill="url(#paint1_linear_1_1887)"/>
<path d="M48.8716 39.4331C47.808 41.984 50.0756 43.8795 52.5624 43.4796C56.3231 42.8751 56.5013 37.9695 52.6955 37.3248C51.1465 37.062 49.476 37.9827 48.8716 39.4331Z" fill="url(#paint2_linear_1_1887)"/>
<path d="M28.4503 28.9961C28.484 28.831 28.4643 28.6749 28.6294 28.5205C28.8478 28.3169 29.1788 28.2618 29.4424 28.4154C29.6182 28.5181 29.7414 28.6314 29.8317 28.8154C30.0642 29.2901 29.8317 29.865 29.279 29.9389C28.7255 30.0145 28.3444 29.5184 28.4503 28.9961Z" fill="white"/>
<path d="M24.3379 29.9504C24.6935 28.8179 26.3968 28.1264 27.4489 28.629C27.7495 28.7727 27.7659 29.3057 27.4489 29.4445C27.0719 29.6096 26.672 29.7032 26.3114 29.9061C25.9238 30.1237 25.6807 30.467 25.3177 30.7044C24.8339 31.0198 24.167 30.4949 24.3379 29.9504Z" fill="white"/>
<path d="M52.3267 38.1378C52.7957 38.0162 53.3451 38.155 53.5546 38.6322C53.7336 39.0404 53.6745 39.5184 53.2581 39.7615C52.9419 39.9463 52.4392 39.8765 52.2085 39.5627C51.6278 39.2597 51.6139 38.3226 52.3267 38.1378Z" fill="white"/>
<defs>
<linearGradient id="paint0_linear_1_1887" x1="51.0584" y1="0" x2="51.0584" y2="87.0307" gradientUnits="userSpaceOnUse">
<stop stop-color="#F87537"/>
<stop offset="1" stop-color="#FBA81F"/>
</linearGradient>
<linearGradient id="paint1_linear_1_1887" x1="66.6444" y1="42.0434" x2="66.6444" y2="78.233" gradientUnits="userSpaceOnUse">
<stop stop-color="#F87537"/>
<stop offset="1" stop-color="#FBA81F"/>
</linearGradient>
<linearGradient id="paint2_linear_1_1887" x1="52.0351" y1="37.2801" x2="52.0351" y2="43.533" gradientUnits="userSpaceOnUse">
<stop stop-color="#F87537"/>
<stop offset="1" stop-color="#FBA81F"/>
</linearGradient>
</defs>
</svg>
