<svg width="101" height="97" viewBox="0 0 101 97" fill="none" xmlns="http://www.w3.org/2000/svg">
<g clip-path="url(#clip0_1_1858)">
<path d="M50.8223 56.0173C50.879 56.051 50.9362 56.0821 50.9918 56.1105C51.3635 56.2971 51.7851 56.3595 52.1948 56.2886C52.6045 56.2177 52.9807 56.0172 53.2681 55.7165C53.27 55.7137 53.2722 55.711 53.2745 55.7085C54.109 54.8237 54.4712 53.5862 54.5771 52.3765C54.7601 50.2108 54.214 48.0462 53.0257 46.2268C52.486 45.4073 51.7921 44.6494 50.8902 44.2613C49.9883 43.8733 48.8515 43.9252 48.1202 44.5825C47.4584 45.1761 47.2455 46.1187 47.1728 47.0019C46.9606 49.7484 47.7584 52.4778 49.4164 54.677C49.8123 55.1941 50.2622 55.6871 50.8223 56.0173Z" fill="url(#paint0_linear_1_1858)"/>
<path d="M41.1847 54.1996C41.7298 54.6513 42.3252 55.0651 42.9992 55.2808C43.0682 55.3027 43.134 55.3204 43.202 55.3343C43.6411 55.443 44.1036 55.4076 44.521 55.2332C44.9385 55.0589 45.2889 54.7549 45.5205 54.366C45.523 54.3634 45.5247 54.36 45.5253 54.3564C46.1977 53.2163 46.2828 51.816 46.1036 50.5025C45.7732 48.1634 44.6707 46.002 42.9714 44.362C42.2022 43.6217 41.2815 42.9858 40.2314 42.7931C39.1813 42.6004 37.9872 42.9291 37.3694 43.8037C36.8119 44.5921 36.8135 45.6434 36.9494 46.5994C37.3886 49.5645 38.8946 52.2671 41.1847 54.1996Z" fill="url(#paint1_linear_1_1858)"/>
<path d="M39.8041 57.948C39.8041 57.8763 39.8041 57.8062 39.8041 57.7371C39.7725 57.029 39.5291 56.3454 39.2296 55.7031C37.9596 52.9881 35.7416 50.8313 32.993 49.6386C32.1055 49.2585 31.0913 48.9866 30.1856 49.3174C29.1836 49.6884 28.5545 50.7557 28.4684 51.8209C28.3822 52.886 28.7583 53.9405 29.2708 54.8772C30.4136 56.9463 32.2159 58.5729 34.3903 59.4976C35.6095 60.0115 36.9838 60.2914 38.2559 59.9403C38.2613 59.9403 38.2656 59.936 38.2688 59.9365C38.7038 59.8133 39.0877 59.5535 39.3641 59.1956C39.6405 58.8376 39.7947 58.4003 39.8041 57.948Z" fill="url(#paint2_linear_1_1858)"/>
<path d="M54.488 58.8858C51.8095 57.4406 47.739 56.6537 44.7347 57.098C43.9434 57.2159 43.1951 57.5333 42.5602 58.0202C41.9252 58.5071 41.4245 59.1476 41.105 59.8814C39.8986 62.6696 39.6012 66.8061 40.3025 69.7677C40.6936 71.4195 41.388 73.0692 42.6686 74.1804C43.9493 75.2916 45.9228 75.7257 47.3848 74.865C49.3107 73.7319 49.5247 71.0497 51.4275 69.5873C53.3303 68.125 55.9746 68.618 57.5699 67.0502C58.781 65.8619 58.8725 63.8445 58.1316 62.3158C57.3907 60.7871 55.9784 59.693 54.488 58.8858Z" fill="url(#paint3_linear_1_1858)"/>
<path d="M37.5536 63.7797C35.8622 61.6059 33.4344 60.1264 30.728 59.6202C29.8539 59.4596 28.8905 59.4237 28.1463 59.9076C27.3246 60.4429 26.9801 61.5295 27.1187 62.5015C27.2572 63.4735 27.8141 64.3401 28.463 65.075C29.9102 66.6949 31.8577 67.7835 33.995 68.1673C35.1928 68.3814 36.4799 68.3503 37.5487 67.7749C37.553 67.7717 37.5584 67.7712 37.56 67.7696C37.9247 67.5698 38.2157 67.2582 38.3902 66.8806C38.5647 66.503 38.6135 66.0793 38.5293 65.6719C38.517 65.6108 38.501 65.5488 38.4838 65.4851C38.3111 64.8588 37.9532 64.2957 37.5536 63.7797Z" fill="url(#paint4_linear_1_1858)"/>
<path d="M79.6377 41.289C79.3237 41.8612 79.0552 42.4725 78.9808 43.1186C78.9722 43.1844 78.9674 43.2486 78.9637 43.3112C78.9437 43.727 79.0576 44.1383 79.2888 44.4844C79.5199 44.8305 79.856 45.0933 80.2476 45.2339C80.2476 45.2339 80.2556 45.2339 80.2577 45.2339C81.4041 45.6396 82.6816 45.47 83.8302 45.0771C85.8833 44.3671 87.6403 42.9908 88.8219 41.167C89.3515 40.3416 89.7639 39.4006 89.7527 38.4173C89.7414 37.4341 89.2348 36.416 88.3393 36.0124C87.5294 35.6473 86.5815 35.8347 85.7448 36.1253C83.1479 37.0439 80.976 38.8803 79.6377 41.289Z" fill="url(#paint5_linear_1_1858)"/>
<path d="M84.6943 25.8649C83.7485 25.6743 82.7883 26.1015 81.9698 26.6142C79.4376 28.2168 77.5777 30.6896 76.7395 33.5678C76.5469 34.2492 76.4105 34.9595 76.486 35.6661C76.494 35.7378 76.5042 35.8052 76.517 35.8738C76.5953 36.3196 76.8149 36.7285 77.1433 37.0399C77.4717 37.3513 77.8915 37.5488 78.3407 37.6032C78.3442 37.604 78.3478 37.604 78.3514 37.6032C79.6657 37.7563 80.9796 37.2676 82.1046 36.5723C84.1105 35.3237 85.6412 33.4395 86.4527 31.2196C86.8181 30.2155 87.0257 29.1161 86.7769 28.0771C86.5282 27.0382 85.7466 26.0763 84.6943 25.8649Z" fill="url(#paint6_linear_1_1858)"/>
<path d="M73.7634 20.9656C72.755 21.3183 71.9445 22.0897 71.2962 22.9397C69.868 24.8228 69.1113 27.1303 69.1467 29.494C69.1708 30.8177 69.472 32.1879 70.3081 33.2098C70.3113 33.2146 70.3156 33.2167 70.3161 33.2199C70.6049 33.5678 70.9976 33.8139 71.4365 33.9219C71.8754 34.0299 72.3373 33.9942 72.7544 33.82C72.8202 33.7921 72.8844 33.7627 72.946 33.7327C73.5804 33.4169 74.1068 32.9175 74.5738 32.3822C76.5407 30.1211 77.6135 27.2186 77.5905 24.2211C77.5787 23.2576 77.4166 22.2171 76.7463 21.5228C76.0016 20.7569 74.7718 20.6129 73.7634 20.9656Z" fill="url(#paint7_linear_1_1858)"/>
<path d="M71.6289 53.7607C73.2054 54.388 75.0863 53.6536 76.1829 52.3577C77.2796 51.0619 77.7086 49.3239 77.8413 47.6335C78.0788 44.5975 77.1459 40.5552 75.526 37.9864C75.098 37.3103 74.5052 36.7542 73.8034 36.3703C73.1016 35.9864 72.3137 35.7874 71.5138 35.7919C68.4769 35.817 64.5765 37.2199 62.1521 39.0618C60.8008 40.0884 59.5741 41.3918 59.0777 43.0131C58.5813 44.6344 58.983 46.6165 60.3616 47.6051C62.1767 48.9096 64.7145 48.0184 66.8207 49.1665C68.9268 50.3146 69.5505 52.9369 71.6289 53.7607Z" fill="url(#paint8_linear_1_1858)"/>
<path d="M62.8613 35.7357C62.8656 35.7357 62.8688 35.7426 62.8709 35.7437C63.2012 35.9964 63.6038 36.1364 64.0195 36.1432C64.4352 36.1499 64.8421 36.023 65.1803 35.7812C65.2338 35.7453 65.2809 35.7057 65.3323 35.6639C65.8351 35.2523 66.2042 34.6967 66.514 34.1224C67.8156 31.6948 68.1846 28.8746 67.5513 26.1935C67.3432 25.3291 66.9869 24.433 66.2433 23.9454C65.4205 23.4102 64.2891 23.5354 63.4567 24.0562C62.6243 24.577 62.0567 25.4345 61.6491 26.3279C60.7535 28.3084 60.5464 30.5319 61.0606 32.644C61.3527 33.8253 61.9027 34.9911 62.8613 35.7357Z" fill="url(#paint9_linear_1_1858)"/>
<path d="M100.458 27.5445C100.215 21.5801 98.4433 15.4203 94.7633 10.6131C90.0263 4.3853 82.4106 0.366008 74.4986 0.906624C68.1359 1.21279 62.292 3.8404 57.778 8.31788C55.6503 10.4354 53.8314 12.8424 52.375 15.4679C52.2323 15.3009 52.088 15.135 51.9422 14.9701C47.44 9.91403 41.9096 5.45743 35.3585 3.41326C25.1409 0.201682 12.5298 2.24371 6.08784 11.4759C5.67375 12.0635 5.28987 12.6718 4.93768 13.2985C1.6814 19.0258 0.209197 25.6893 0.54087 32.2522C1.91571 59.9515 31.8551 88.6759 57.1174 96.8584C39.6521 89.1041 23.0545 73.6098 13.3884 57.1954C6.251 45.0846 1.81674 29.389 9.21038 16.426C10.2519 14.5146 11.6599 12.8002 13.3798 11.4626C19.3553 6.81486 27.8312 6.63126 34.7578 9.12345C40.9708 11.462 46.4305 16.6289 50.3598 21.8991C50.4133 21.9617 53.6717 26.6383 53.814 26.8396L55.6328 21.6443L55.6863 21.4875L55.7612 21.2841C56.1585 20.2598 56.6218 19.2625 57.1484 18.2984C60.2672 12.4838 65.4402 7.7885 72.0352 6.50869C73.2605 6.26688 74.504 6.1283 75.7526 6.0944C82.2742 5.83372 88.553 9.69351 92.1372 15.0552C96.128 21.0844 96.9294 28.7018 96.1087 35.7747C93.8384 53.2987 80.7715 73.263 68.544 85.7303C72.0485 82.8244 75.3235 79.6133 78.3803 76.2321C87.956 65.4845 96.8593 51.7047 99.7347 37.3961C100.348 34.1503 100.591 30.8452 100.458 27.5445Z" fill="url(#paint10_linear_1_1858)"/>
</g>
<defs>
<linearGradient id="paint0_linear_1_1858" x1="50.8754" y1="44.0173" x2="50.8754" y2="56.317" gradientUnits="userSpaceOnUse">
<stop stop-color="#F87537"/>
<stop offset="1" stop-color="#FBA81F"/>
</linearGradient>
<linearGradient id="paint1_linear_1_1858" x1="41.5295" y1="42.7398" x2="41.5295" y2="55.3961" gradientUnits="userSpaceOnUse">
<stop stop-color="#F87537"/>
<stop offset="1" stop-color="#FBA81F"/>
</linearGradient>
<linearGradient id="paint2_linear_1_1858" x1="34.1301" y1="49.1688" x2="34.1301" y2="60.0967" gradientUnits="userSpaceOnUse">
<stop stop-color="#F87537"/>
<stop offset="1" stop-color="#FBA81F"/>
</linearGradient>
<linearGradient id="paint3_linear_1_1858" x1="49.2663" y1="56.9742" x2="49.2663" y2="75.32" gradientUnits="userSpaceOnUse">
<stop stop-color="#F87537"/>
<stop offset="1" stop-color="#FBA81F"/>
</linearGradient>
<linearGradient id="paint4_linear_1_1858" x1="32.8292" y1="59.5126" x2="32.8292" y2="68.2892" gradientUnits="userSpaceOnUse">
<stop stop-color="#F87537"/>
<stop offset="1" stop-color="#FBA81F"/>
</linearGradient>
<linearGradient id="paint5_linear_1_1858" x1="84.3572" y1="35.8107" x2="84.3572" y2="45.4671" gradientUnits="userSpaceOnUse">
<stop stop-color="#F87537"/>
<stop offset="1" stop-color="#FBA81F"/>
</linearGradient>
<linearGradient id="paint6_linear_1_1858" x1="81.6753" y1="25.8186" x2="81.6753" y2="37.6314" gradientUnits="userSpaceOnUse">
<stop stop-color="#F87537"/>
<stop offset="1" stop-color="#FBA81F"/>
</linearGradient>
<linearGradient id="paint7_linear_1_1858" x1="73.3682" y1="20.783" x2="73.3682" y2="33.983" gradientUnits="userSpaceOnUse">
<stop stop-color="#F87537"/>
<stop offset="1" stop-color="#FBA81F"/>
</linearGradient>
<linearGradient id="paint8_linear_1_1858" x1="68.3758" y1="35.7918" x2="68.3758" y2="53.9883" gradientUnits="userSpaceOnUse">
<stop stop-color="#F87537"/>
<stop offset="1" stop-color="#FBA81F"/>
</linearGradient>
<linearGradient id="paint9_linear_1_1858" x1="64.3189" y1="23.5999" x2="64.3189" y2="36.1434" gradientUnits="userSpaceOnUse">
<stop stop-color="#F87537"/>
<stop offset="1" stop-color="#FBA81F"/>
</linearGradient>
<linearGradient id="paint10_linear_1_1858" x1="50.4942" y1="0.858051" x2="50.4942" y2="96.8584" gradientUnits="userSpaceOnUse">
<stop stop-color="#F87537"/>
<stop offset="1" stop-color="#FBA81F"/>
</linearGradient>
<clipPath id="clip0_1_1858">
<rect width="100" height="96" fill="white" transform="translate(0.493164 0.85791)"/>
</clipPath>
</defs>
</svg>
