<svg width="81" height="66" viewBox="0 0 81 66" fill="none" xmlns="http://www.w3.org/2000/svg">
<path d="M50.4784 11.5417C49.54 11.656 49.2592 12.9261 50.2479 13.2471C55.3218 14.894 52.2966 21.1259 52.7576 24.7365C52.8229 25.2492 53.3954 25.5783 53.815 25.1744C56.8116 22.2907 56.3716 10.8264 50.4784 11.5417Z" fill="white"/>
<path d="M32.8472 17.2711C31.8293 15.4604 30.0852 14.2833 28.0847 13.821C27.2443 13.6265 26.9322 14.8151 27.7318 15.1013C29.3148 15.6691 30.5109 16.957 31.2201 18.4631C31.8089 19.7142 31.5818 21.2659 32.2917 22.4185C32.4542 22.683 32.7595 22.6823 32.9832 22.5076C34.4853 21.3346 33.6156 18.6379 32.8472 17.2711Z" fill="white"/>
<path d="M14.1746 29.1427C13.3083 27.4347 11.7512 25.817 9.6895 26.3372C8.75319 26.5731 8.96194 27.9977 9.91525 28.0052C13.4082 28.0324 13.0621 34.2044 14.8443 36.1525C14.9994 36.3218 15.3563 36.3008 15.4556 36.0736C16.3369 34.0616 15.1116 30.9902 14.1746 29.1427Z" fill="white"/>
<path d="M21.5042 63.7178C18.8856 64.8935 13.8212 66.7641 11.2353 64.5236C9.43816 62.9665 9.53811 59.0403 9.66595 56.8944C10.0719 50.1008 13.9334 43.4004 18.0159 38.1347C22.8968 31.841 30.2016 27.0383 38.162 26.7698C44.2049 26.5658 50.158 28.9912 54.8763 32.7718C59.5946 36.5525 63.1597 41.6141 65.8979 47.0042C67.234 49.6344 68.4083 52.446 68.4532 55.3957C68.4974 58.3454 67.1932 61.4733 64.6005 62.8801C62.5219 64.0082 59.9543 63.8756 57.705 63.1446C55.4556 62.4143 53.4287 61.1428 51.3459 60.0215C47.5041 57.9538 43.2414 56.3436 38.8869 56.6081C32.5911 56.9916 27.2588 61.134 21.5042 63.7178Z" fill="url(#paint0_linear_1_1870)"/>
<path d="M15.5335 30.5224C16.3067 36.8944 11.466 40.3609 6.52194 35.5705C3.48996 32.6331 1.12979 27.4075 0.706853 23.206C0.494024 21.0886 0.753091 18.6958 2.34966 17.2889C3.87958 15.9405 6.27171 15.933 8.09742 16.8422C9.92314 17.7513 11.262 19.4124 12.3139 21.16C14.0281 24.0083 15.133 27.2219 15.5335 30.5224Z" fill="url(#paint1_linear_1_1870)"/>
<path d="M33.8101 13.3635C34.8287 17.652 33.619 24.2709 27.825 23.784C20.8894 23.2013 20.0836 11.2331 20.8336 6.30134C21.1144 4.45183 21.8332 2.38677 23.5773 1.71088C24.7781 1.2451 26.1768 1.60277 27.2369 2.33509C28.2963 3.06674 29.0782 4.12817 29.8078 5.1896C31.5343 7.7048 33.105 10.3947 33.8101 13.3635Z" fill="url(#paint2_linear_1_1870)"/>
<path d="M57.9311 10.5586C57.9937 7.71705 57.3599 4.73403 55.4941 2.5901C53.6283 0.446159 50.3305 -0.589431 47.8119 0.727666C45.1974 2.0944 44.2352 5.32017 43.8041 8.23791C43.218 12.2001 42.2722 19.4812 45.1661 22.8191C46.9775 24.9087 49.694 23.8214 51.7713 22.6145C55.8463 20.2455 57.8325 15.0736 57.9311 10.5586Z" fill="url(#paint3_linear_1_1870)"/>
<path d="M74.991 36.5559C70.9106 40.4046 62.5701 39.2119 63.3065 32.5734C63.8042 28.0829 66.8607 23.4564 69.6309 20.011C71.3206 17.9099 73.7929 15.8808 76.4251 16.4663C78.5126 16.9307 79.9487 18.991 80.3138 21.0982C80.6783 23.2054 80.1799 25.3596 79.6135 27.4219C78.6975 30.7551 77.5062 34.1842 74.991 36.5559Z" fill="url(#paint4_linear_1_1870)"/>
<path d="M45.0849 31.2271C45.0652 31.1156 45.0278 31.0142 45.0081 30.9027C44.8918 30.2377 44.205 29.7556 43.5788 29.6713C42.8057 29.5673 42.0829 29.978 41.7796 30.6974C41.5131 31.3291 41.6416 32.0811 42.1352 32.5748C42.7003 33.1398 43.5278 33.184 44.218 32.8434C43.7536 33.0725 44.3771 32.7862 44.4682 32.7427C45.0339 32.4687 45.1849 31.7846 45.0849 31.2271Z" fill="white"/>
<path d="M49.5079 33.058C48.5648 32.6126 47.4707 33.7821 48.3282 34.5865C51.5152 37.5757 54.9565 39.8896 57.4846 43.5628C60.5465 48.0118 61.6868 53.4006 60.5377 58.6907C60.0821 60.7877 63.3983 61.6139 63.7063 59.5645C65.3736 48.4511 59.8115 37.9279 49.5079 33.058Z" fill="white"/>
<path d="M75.8022 19.7136C74.9243 19.2546 73.9445 20.3949 74.7108 21.1279C76.406 22.7483 75.4268 26.5017 74.9216 28.3519C74.4647 30.0266 73.4733 31.513 73.4134 33.2504C73.3958 33.7631 74.0492 34.188 74.4939 33.8705C76.6317 32.3426 77.2641 28.9033 77.5905 26.4378C77.8965 24.1293 78.233 20.9844 75.8022 19.7136Z" fill="white"/>
<defs>
<linearGradient id="paint0_linear_1_1870" x1="39.0294" y1="26.7578" x2="39.0294" y2="65.5721" gradientUnits="userSpaceOnUse">
<stop stop-color="#F87537"/>
<stop offset="1" stop-color="#FBA81F"/>
</linearGradient>
<linearGradient id="paint1_linear_1_1870" x1="8.12894" y1="16.2104" x2="8.12894" y2="37.8085" gradientUnits="userSpaceOnUse">
<stop stop-color="#F87537"/>
<stop offset="1" stop-color="#FBA81F"/>
</linearGradient>
<linearGradient id="paint2_linear_1_1870" x1="27.3706" y1="1.50173" x2="27.3706" y2="23.8094" gradientUnits="userSpaceOnUse">
<stop stop-color="#F87537"/>
<stop offset="1" stop-color="#FBA81F"/>
</linearGradient>
<linearGradient id="paint3_linear_1_1870" x1="50.5553" y1="0.143791" x2="50.5553" y2="23.9979" gradientUnits="userSpaceOnUse">
<stop stop-color="#F87537"/>
<stop offset="1" stop-color="#FBA81F"/>
</linearGradient>
<linearGradient id="paint4_linear_1_1870" x1="71.8494" y1="16.3641" x2="71.8494" y2="38.7375" gradientUnits="userSpaceOnUse">
<stop stop-color="#F87537"/>
<stop offset="1" stop-color="#FBA81F"/>
</linearGradient>
</defs>
</svg>
