<svg width="78" height="77" viewBox="0 0 78 77" fill="none" xmlns="http://www.w3.org/2000/svg">
<path d="M77.9979 32.5336C77.4125 32.0136 75.8603 39.6455 75.7712 40.4258C75.308 44.4413 74.6333 48.4482 74.0644 52.4551C72.9668 60.2258 71.87 68.0044 70.7724 75.7743C66.4074 75.7743 62.0344 75.7578 57.6621 75.742C47.4698 75.7096 37.2609 75.6765 27.0757 75.7578C21.0694 75.8067 15.0709 75.8959 9.08036 76.0584C9.02354 76.0584 8.88544 75.4816 8.68981 74.4977C7.55197 68.9214 4.45491 50.1701 4.08091 48.1627C3.5609 45.3419 3.07327 42.7979 2.19507 40.1324C1.86207 39.1406 -0.00797242 32.4754 0.853677 31.8094C7.18515 26.8998 12.0544 20.8122 18.4916 16.1386C20.4422 14.7245 38.4541 0.272836 39.3891 0.971218C52.7195 10.9212 65.6025 21.4552 77.9979 32.5336Z" fill="url(#paint0_linear_1_1854)"/>
<defs>
<linearGradient id="paint0_linear_1_1854" x1="39.3134" y1="0.946716" x2="39.3134" y2="76.0584" gradientUnits="userSpaceOnUse">
<stop stop-color="#F87537"/>
<stop offset="1" stop-color="#FBA81F"/>
</linearGradient>
</defs>
</svg>
