<svg width="180" height="181" viewBox="0 0 180 181" fill="none" xmlns="http://www.w3.org/2000/svg">
<path d="M131.596 173.404C146.954 164.601 156.239 145.612 164.927 125.985C173.381 106.305 181.005 85.9313 179.54 64.2341C178.365 42.3517 167.921 18.8528 150.371 8.05472C132.532 -2.55822 107.534 -0.231511 83.7421 4.38178C60.1855 9.04876 37.8907 15.7635 23.3903 30.5433C8.83523 45.562 1.89438 68.3533 0.863233 91.2391C-0.22252 114.364 4.36657 137.529 17.4812 152.591C30.6504 167.414 52.3997 173.895 73.7556 177.772C95.1662 181.411 116.418 182.5 131.596 173.404Z" fill="url(#paint0_linear_1_1513)"/>
<defs>
<linearGradient id="paint0_linear_1_1513" x1="24.8842" y1="-23" x2="166.281" y2="187.33" gradientUnits="userSpaceOnUse">
<stop stop-color="#F87537"/>
<stop offset="1" stop-color="#FBA81F"/>
</linearGradient>
</defs>
</svg>
