<svg width="102" height="64" viewBox="0 0 102 64" fill="none" xmlns="http://www.w3.org/2000/svg">
<path d="M74.2982 4.50915C64.6002 -0.451786 53.1479 -0.512022 42.3195 0.6756C33.995 1.58881 25.2681 3.40036 19.0936 9.05737C10.5541 16.8814 9.88558 30.474 16.4067 39.6819C21.8384 47.3528 30.1346 52.1144 39.5917 52.3077C44.7557 52.4126 50.2178 52.4044 55.6213 51.9203C60.403 55.9286 65.184 59.9377 69.9657 63.946C69.1291 59.3665 68.2924 54.7864 67.4558 50.2069C67.4372 50.1043 67.4157 49.9994 67.3956 49.8953C69.1105 49.4261 70.7934 48.8817 72.422 48.2288C80.0326 45.179 86.9181 39.1286 88.7854 31.1455C91.2655 20.538 83.9963 9.47009 74.2982 4.50915Z" fill="url(#paint0_linear_1_1840)"/>
<path d="M32.7355 19.6772C30.48 19.6772 28.3189 21.6605 28.423 23.9896C28.5279 26.3262 30.3179 28.3021 32.7355 28.3021C34.991 28.3021 37.1521 26.3188 37.048 23.9896C36.9431 21.6531 35.1531 19.6772 32.7355 19.6772Z" fill="white"/>
<path d="M68.5734 19.6772C66.3179 19.6772 64.1568 21.6605 64.2609 23.9896C64.3658 26.3262 66.1558 28.3021 68.5734 28.3021C70.8289 28.3021 72.99 26.3188 72.8859 23.9896C72.781 21.6531 70.991 19.6772 68.5734 19.6772Z" fill="white"/>
<path d="M57.1824 40.8244C55.373 41.9875 53.47 42.5155 51.5402 42.6033C51.5499 42.5653 51.57 42.5319 51.5744 42.4925C51.7916 40.5233 51.596 38.4648 51.5923 36.4785C51.59 35.3563 51.6176 34.2327 51.5335 33.1194C51.7767 33.1254 52.0028 33.1157 52.1894 33.0763C53.934 32.7015 57.3802 31.4082 57.5527 29.2524C57.7535 26.7507 54.9744 26.9374 53.2826 26.9627C51.4681 26.9894 45.5114 26.2078 45.2541 28.9378C45.086 30.7226 47.7557 32.2791 49.9756 32.8703C49.7963 34.2014 49.8194 35.5645 49.8038 36.9083C49.7822 38.7913 49.6669 40.7062 49.9146 42.5743C48.1551 42.43 46.3874 41.9593 44.6569 41.2334C44.291 41.0803 43.9787 41.6506 44.2702 41.8975C48.2005 45.2209 53.8128 44.861 58.048 42.3051C58.9946 41.7347 58.1119 40.2265 57.1824 40.8244Z" fill="white"/>
<path d="M8.1437 14.4735C7.03639 15.5756 6.14846 16.9246 5.50817 18.3517C4.59124 20.3938 3.67506 22.4366 2.75813 24.4794C1.32287 27.6772 -0.142135 31.0236 0.0110584 34.5255C0.164252 38.0274 2.48371 41.7033 5.95957 42.1577C7.88118 42.409 9.95896 41.5412 10.9599 39.8821C12.1751 37.869 11.6605 35.3153 11.2946 32.9921C10.4959 27.9181 10.342 22.1183 12.0784 17.2154C12.7232 15.3949 13.3679 13.5737 14.0126 11.7532C11.6731 11.8722 9.69274 12.9319 8.1437 14.4735Z" fill="url(#paint1_linear_1_1840)"/>
<path d="M96.4974 18.3516C97.4144 20.3937 98.3305 22.4366 99.2475 24.4794C100.683 27.6771 102.148 31.0236 101.995 34.5255C101.841 38.0273 99.5219 41.7032 96.046 42.1576C94.1244 42.409 92.0466 41.5411 91.0457 39.882C89.8305 37.8689 90.3451 35.3152 90.711 32.992C91.4755 28.1374 91.8682 22.1376 89.3791 17.6995C88.3217 15.8135 86.9347 14.1329 85.8088 12.2864C85.4199 11.6483 85.1031 10.7202 85.6787 10.2436C85.9717 10.0004 86.3904 9.99219 86.7704 10.019C91.5224 10.3499 94.6874 14.3181 96.4974 18.3516Z" fill="url(#paint2_linear_1_1840)"/>
<path d="M85.5261 24.8898C84.9364 17.4941 80.7578 10.4733 73.7146 7.64141C72.9397 7.32981 72.4333 8.58808 73.1502 8.97999C79.0184 12.1859 82.8847 17.7611 83.5681 24.4644C84.1459 30.1378 82.7173 38.3954 76.4044 40.3311C75.2332 40.6903 75.7322 42.5338 76.9124 42.1731C83.9637 40.0165 86.0474 31.4206 85.5261 24.8898Z" fill="white"/>
<path d="M69.9473 7.12464C69.9324 7.04804 69.9064 6.97293 69.8715 6.89857C69.957 6.13335 69.1129 5.60088 68.4132 6.15937C67.6457 6.7714 68.0569 7.83855 68.8861 8.10701C69.2974 8.24013 69.6476 7.99992 69.8469 7.66825C70.0247 7.52919 70.0722 7.29643 69.9473 7.12464Z" fill="white"/>
<defs>
<linearGradient id="paint0_linear_1_1840" x1="50.6535" y1="0.0384521" x2="50.6535" y2="63.946" gradientUnits="userSpaceOnUse">
<stop stop-color="#F87537"/>
<stop offset="1" stop-color="#FBA81F"/>
</linearGradient>
<linearGradient id="paint1_linear_1_1840" x1="7.00632" y1="11.7532" x2="7.00632" y2="42.2005" gradientUnits="userSpaceOnUse">
<stop stop-color="#F87537"/>
<stop offset="1" stop-color="#FBA81F"/>
</linearGradient>
<linearGradient id="paint2_linear_1_1840" x1="93.6847" y1="10.0085" x2="93.6847" y2="42.2004" gradientUnits="userSpaceOnUse">
<stop stop-color="#F87537"/>
<stop offset="1" stop-color="#FBA81F"/>
</linearGradient>
</defs>
</svg>
